<?xml version="1.0" standalone="no"?>
<!DOCTYPE svg PUBLIC "-//W3C//DTD SVG 20010904//EN"
 "http://www.w3.org/TR/2001/REC-SVG-20010904/DTD/svg10.dtd">
<svg version="1.0" xmlns="http://www.w3.org/2000/svg"
 width="1500.000000pt" height="372.000000pt" viewBox="0 0 1500.000000 372.000000"
 preserveAspectRatio="xMidYMid meet">

<g transform="translate(0.000000,372.000000) scale(0.100000,-0.100000)"
fill="#000000" stroke="none">
<path d="M3290 3109 c-298 -29 -563 -154 -772 -366 -184 -187 -289 -384 -345
-643 -22 -103 -24 -371 -4 -465 56 -266 173 -486 351 -664 144 -144 313 -246
510 -309 141 -44 228 -57 390 -56 118 1 166 6 256 27 181 41 386 136 498 231
l39 32 -43 75 c-24 41 -54 91 -67 112 l-23 37 -54 -44 c-101 -82 -237 -151
-373 -188 -64 -18 -106 -21 -243 -22 -142 0 -177 3 -250 23 -169 45 -314 127
-444 251 -130 124 -218 269 -273 447 -25 81 -27 101 -27 268 0 205 13 271 82
419 55 116 112 198 206 292 337 339 863 389 1261 121 140 -94 285 -266 355
-420 119 -262 113 -582 -15 -844 l-43 -88 66 -117 c37 -65 70 -118 74 -118 13
0 88 119 134 212 231 475 137 1050 -234 1426 -264 268 -643 407 -1012 371z"/>
<path d="M3109 1999 c-200 -320 -365 -586 -367 -590 -2 -5 59 -9 136 -9 l139
0 84 143 c46 78 147 249 225 380 l141 238 474 -775 474 -776 127 0 128 0 -54
88 c-29 48 -297 490 -596 982 -298 492 -543 896 -544 897 -2 2 -166 -259 -367
-578z"/>
<path d="M10608 2011 c-71 -23 -108 -74 -108 -150 0 -65 26 -112 74 -135 47
-22 123 -21 164 4 37 23 37 23 16 55 l-16 25 -25 -20 c-35 -27 -85 -26 -119 3
-21 19 -27 32 -27 67 0 35 6 48 27 67 33 28 85 30 123 6 24 -16 26 -16 39 2
18 24 14 34 -17 57 -29 21 -94 30 -131 19z"/>
<path d="M11253 2006 c-17 -8 -36 -23 -42 -35 -9 -16 -7 -23 11 -35 20 -14 24
-14 43 4 25 24 48 25 65 5 18 -22 4 -46 -69 -127 -34 -37 -61 -76 -61 -87 0
-20 5 -21 105 -21 l105 0 0 30 c0 30 0 30 -57 30 l-57 0 35 38 c54 56 69 83
69 122 0 67 -77 107 -147 76z"/>
<path d="M12064 2013 c-12 -2 -34 -17 -50 -34 -24 -26 -29 -39 -32 -100 -7
-115 30 -169 117 -169 83 0 121 48 121 150 0 119 -55 173 -156 153z m81 -83
c28 -54 12 -153 -26 -165 -64 -20 -101 73 -65 160 12 29 20 35 45 35 24 0 34
-7 46 -30z"/>
<path d="M12355 2010 c-75 -31 -106 -161 -59 -252 19 -36 43 -48 98 -48 65 0
101 33 101 93 0 74 -63 122 -128 98 -22 -9 -27 -8 -27 4 0 20 36 55 56 55 8 0
25 -5 36 -11 18 -10 25 -8 41 12 l19 24 -38 17 c-42 19 -68 21 -99 8z m77
-185 c9 -21 8 -28 -7 -45 -31 -34 -75 -20 -75 25 0 48 62 63 82 20z"/>
<path d="M12625 2013 c-26 -6 -62 -40 -68 -62 -2 -10 1 -31 7 -46 10 -23 9
-35 -6 -65 -35 -70 12 -130 102 -130 46 0 94 21 104 45 11 29 7 80 -8 101 -10
13 -11 25 -5 35 16 26 10 75 -13 96 -24 22 -79 35 -113 26z m56 -53 c27 -15
24 -48 -6 -62 -19 -8 -28 -8 -40 2 -20 17 -19 47 3 59 21 13 20 13 43 1z m19
-135 c17 -20 3 -54 -25 -61 -47 -12 -84 33 -53 64 17 17 63 15 78 -3z"/>
<path d="M10200 1860 l0 -150 35 0 c35 0 35 0 35 45 0 40 2 45 23 45 16 0 34
-14 56 -45 29 -41 36 -45 73 -45 l40 0 -37 51 -36 51 25 23 c21 19 26 34 26
70 0 26 -4 55 -10 65 -14 27 -64 40 -151 40 l-79 0 0 -150z m170 71 c20 -38
-12 -71 -69 -71 -30 0 -31 1 -31 45 l0 45 45 0 c34 0 47 -5 55 -19z"/>
<path d="M10950 1960 c0 -49 1 -50 30 -50 23 0 30 4 30 20 0 16 7 20 35 20 19
0 35 -2 35 -5 0 -3 -9 -24 -21 -46 -11 -23 -36 -74 -54 -115 l-34 -74 34 0
c34 0 36 2 95 120 34 67 60 133 60 150 l0 30 -105 0 -105 0 0 -50z"/>
<path d="M11470 1936 c0 -84 11 -102 59 -91 40 9 68 -1 76 -26 14 -43 -47 -66
-92 -34 -19 13 -22 13 -37 -10 -9 -13 -16 -27 -16 -29 0 -14 64 -36 105 -36
64 0 105 39 105 100 0 62 -44 97 -112 92 -13 -1 -18 6 -18 23 0 24 3 25 60 25
l60 0 0 30 0 30 -95 0 -95 0 0 -74z"/>
<path d="M11730 1937 c0 -42 5 -78 12 -85 7 -7 27 -9 52 -6 48 7 70 -10 64
-48 -4 -29 -49 -36 -83 -14 -22 15 -25 14 -40 -6 -8 -12 -15 -26 -15 -30 0
-16 61 -38 103 -38 56 0 94 28 103 76 12 63 -27 110 -97 117 -26 3 -35 9 -37
26 -3 19 1 21 57 21 l61 0 0 30 0 30 -90 0 -90 0 0 -73z"/>
<path d="M10825 1870 c-14 -44 44 -69 65 -29 9 15 8 24 -1 35 -18 21 -57 18
-64 -6z"/>
<path d="M10830 1765 c-18 -21 -3 -55 24 -55 33 0 50 23 36 49 -12 24 -42 27
-60 6z"/>
<path d="M3322 1738 c-7 -7 -12 -43 -12 -90 l0 -78 65 0 65 0 0 90 0 90 -53 0
c-29 0 -58 -5 -65 -12z"/>
<path d="M3480 1660 l0 -90 65 0 65 0 0 71 c0 98 -8 109 -75 109 l-55 0 0 -90z"/>
<path d="M8647 1596 c-58 -16 -113 -66 -127 -116 -5 -19 -10 -109 -10 -199 0
-147 2 -169 21 -208 59 -121 270 -134 351 -21 20 29 23 46 26 156 l4 122 -96
0 -96 0 0 -65 c0 -63 1 -65 25 -65 20 0 25 -5 25 -26 0 -43 -17 -64 -53 -64
-54 0 -57 9 -57 175 0 140 2 153 20 170 30 27 72 10 85 -33 l9 -32 69 0 69 0
-4 53 c-3 34 -13 66 -27 86 -45 62 -146 92 -234 67z"/>
<path d="M9756 1599 c-58 -14 -99 -43 -124 -88 -22 -39 -23 -49 -20 -233 3
-184 4 -195 26 -226 36 -50 95 -76 172 -76 82 0 139 28 177 86 26 39 28 49 31
180 5 169 -3 237 -32 280 -42 64 -145 98 -230 77z m94 -149 c18 -18 20 -33 20
-164 0 -138 -1 -146 -22 -160 -30 -21 -54 -20 -78 4 -18 18 -20 33 -20 160 0
127 2 142 20 160 11 11 29 20 40 20 11 0 29 -9 40 -20z"/>
<path d="M11213 1598 c-87 -19 -143 -108 -129 -208 10 -75 44 -112 143 -161
73 -37 88 -48 91 -70 7 -57 -70 -65 -91 -9 -11 29 -13 30 -79 30 l-68 0 0 -32
c1 -118 118 -197 246 -169 113 26 168 132 132 254 -16 53 -56 90 -148 135 -53
26 -76 43 -78 58 -7 49 72 58 84 9 6 -24 10 -25 75 -25 l69 0 0 29 c0 73 -48
134 -124 156 -55 17 -63 17 -123 3z"/>
<path d="M4787 1593 c-4 -6 59 -419 88 -581 l6 -33 87 3 87 3 19 178 c11 97
21 176 22 174 2 -2 10 -64 18 -138 9 -73 18 -153 21 -176 l6 -43 84 0 c80 0
85 1 90 23 7 28 95 574 95 587 0 6 -33 10 -74 10 -63 0 -75 -3 -80 -17 -2 -10
-10 -102 -17 -205 -7 -104 -14 -186 -17 -184 -4 4 -52 366 -52 394 0 15 -126
17 -135 2 -3 -5 -16 -95 -29 -200 -13 -105 -26 -193 -28 -195 -2 -3 -10 71
-17 163 -6 92 -14 184 -17 205 l-6 37 -73 0 c-41 0 -76 -3 -78 -7z"/>
<path d="M5470 1290 l0 -311 73 3 72 3 0 162 c0 89 1 160 3 158 3 -2 50 -168
83 -287 l10 -38 84 0 85 0 0 310 0 311 -72 -3 -73 -3 0 -162 c0 -89 -3 -156
-6 -150 -3 7 -25 81 -49 165 l-44 152 -83 0 -83 0 0 -310z"/>
<path d="M5970 1290 l0 -310 155 0 155 0 0 70 0 69 -82 3 -83 3 -3 238 -2 237
-70 0 -70 0 0 -310z"/>
<path d="M6446 1591 c-7 -10 -126 -577 -126 -597 0 -11 18 -14 74 -14 79 0 86
5 86 55 0 47 9 55 65 55 l52 0 9 -52 9 -53 78 -3 c63 -2 77 0 77 12 0 22 -119
586 -125 597 -8 12 -192 12 -199 0z m117 -268 l14 -93 -34 0 c-37 0 -37 -4
-23 93 21 145 22 145 43 0z"/>
<path d="M6830 1290 l0 -310 70 0 70 0 1 168 0 167 48 -165 48 -165 84 0 84 0
0 305 0 305 -70 0 -70 0 -5 -160 -5 -160 -45 160 -45 160 -83 3 -82 3 0 -311z"/>
<path d="M7325 1589 c-3 -8 -4 -147 -3 -309 l3 -295 94 -3 c167 -5 242 25 282
113 27 59 27 331 0 390 -40 86 -83 106 -248 113 -99 4 -124 2 -128 -9z m223
-145 c21 -14 22 -22 22 -151 0 -154 -7 -173 -67 -173 l-33 0 0 170 0 170 28 0
c15 0 38 -7 50 -16z"/>
<path d="M7795 1587 c-3 -7 -4 -145 -3 -307 l3 -295 70 0 70 0 3 308 2 307
-70 0 c-48 0 -72 -4 -75 -13z"/>
<path d="M8030 1290 l0 -310 70 0 70 0 2 167 3 167 46 -165 45 -164 85 0 84 0
0 305 0 305 -70 0 -70 0 -5 -160 -5 -160 -45 160 -45 160 -83 3 -82 3 0 -311z"/>
<path d="M9150 1290 l0 -310 70 0 70 0 0 120 0 120 50 0 50 0 0 -120 0 -120
70 0 70 0 0 310 0 310 -70 0 -70 0 0 -120 0 -120 -50 0 -50 0 0 120 0 120 -70
0 -70 0 0 -310z"/>
<path d="M10097 1593 c-4 -3 -7 -143 -7 -310 l0 -304 73 3 72 3 5 175 5 175
25 -120 26 -120 54 0 55 0 26 120 c14 66 27 126 30 133 2 7 4 -72 4 -175 l0
-188 73 -3 72 -3 0 311 0 311 -97 -3 -98 -3 -29 -149 c-16 -83 -32 -142 -36
-135 -4 8 -17 68 -29 134 -12 66 -24 128 -27 138 -5 15 -18 17 -98 17 -51 0
-96 -3 -99 -7z"/>
<path d="M10700 1290 l0 -310 163 2 162 3 3 67 3 67 -93 3 -93 3 -3 47 -3 47
78 3 78 3 3 68 3 67 -81 0 -81 0 3 48 3 47 93 3 93 3 -3 67 -3 67 -162 3 -163
2 0 -310z"/>
<path d="M11697 1593 c-4 -3 -7 -143 -7 -310 l0 -304 158 3 157 3 3 68 3 67
-86 0 -85 0 0 240 0 240 -68 0 c-38 0 -72 -3 -75 -7z"/>
<path d="M11977 1593 c-4 -3 -7 -35 -7 -70 l0 -63 60 0 60 0 0 -240 0 -241 73
3 72 3 3 238 2 237 55 0 55 0 0 70 0 70 -183 0 c-101 0 -187 -3 -190 -7z"/>
<path d="M12420 1290 l0 -312 123 4 c142 4 195 23 237 85 24 35 25 44 28 212
3 169 2 178 -21 221 -38 72 -91 93 -243 98 l-124 4 0 -312z m226 145 c25 -25
26 -28 22 -156 -3 -146 -10 -159 -75 -159 l-33 0 0 170 0 170 30 0 c20 0 40
-9 56 -25z"/>
<path d="M3320 1465 l0 -45 55 0 55 0 0 45 0 45 -55 0 -55 0 0 -45z"/>
<path d="M3490 1465 l0 -45 60 0 60 0 0 45 0 45 -60 0 -60 0 0 -45z"/>
<path d="M9460 847 c0 -32 -1 -32 -38 -29 -48 5 -76 -23 -75 -74 2 -55 25 -73
94 -72 l59 1 0 103 c0 97 -1 104 -20 104 -16 0 -20 -7 -20 -33z m-16 -73 c20
-20 20 -38 0 -58 -12 -12 -20 -13 -35 -6 -21 12 -25 50 -7 68 16 16 23 15 42
-4z"/>
<path d="M10050 775 c0 -98 1 -105 20 -105 19 0 20 7 20 105 0 98 -1 105 -20
105 -19 0 -20 -7 -20 -105z"/>
<path d="M10950 776 l0 -103 59 -1 c44 -1 63 4 74 16 55 63 10 148 -68 128
-23 -6 -25 -4 -25 29 0 28 -4 35 -20 35 -19 0 -20 -7 -20 -104z m104 -2 c19
-18 19 -20 6 -45 -17 -31 -70 -18 -70 17 0 14 27 44 40 44 5 0 16 -7 24 -16z"/>
<path d="M11320 860 c0 -13 7 -20 20 -20 13 0 20 7 20 20 0 13 -7 20 -20 20
-13 0 -20 -7 -20 -20z"/>
<path d="M11400 775 c0 -98 1 -105 20 -105 19 0 20 7 20 105 0 98 -1 105 -20
105 -19 0 -20 -7 -20 -105z"/>
<path d="M11590 847 c0 -32 -1 -33 -35 -29 -49 6 -75 -19 -75 -70 0 -56 25
-76 94 -76 l56 1 0 103 c0 97 -1 104 -20 104 -16 0 -20 -7 -20 -33z m0 -102
c0 -29 -28 -47 -53 -34 -40 23 -6 90 35 68 10 -5 18 -21 18 -34z"/>
<path d="M11677 873 c-14 -13 -7 -33 11 -33 24 0 32 8 25 26 -5 15 -25 19 -36
7z"/>
<path d="M9121 811 c-24 -15 -2 -32 34 -25 18 3 35 1 39 -4 3 -6 -11 -13 -35
-17 -51 -9 -72 -44 -45 -74 13 -15 31 -19 72 -19 l54 1 0 54 c0 77 -11 93 -63
93 -23 0 -48 -4 -56 -9z m73 -80 c9 -15 -23 -36 -36 -23 -5 5 -7 15 -4 21 9
13 33 14 40 2z"/>
<path d="M9551 794 c-28 -35 -26 -69 4 -99 26 -27 63 -32 96 -14 16 8 18 13 8
25 -9 10 -15 11 -25 3 -7 -6 -22 -8 -34 -4 -37 12 -21 25 30 25 48 0 50 1 50
28 0 62 -89 87 -129 36z m79 -19 c11 -13 8 -15 -19 -15 -30 0 -39 9 -24 23 11
11 30 8 43 -8z"/>
<path d="M9700 813 c0 -4 12 -38 27 -75 21 -56 30 -68 48 -68 19 0 27 12 49
71 31 84 31 79 7 79 -13 0 -25 -15 -38 -47 l-19 -48 -19 48 c-12 33 -23 47
-36 47 -11 0 -19 -3 -19 -7z"/>
<path d="M9890 800 c-63 -63 21 -162 101 -119 16 8 18 13 8 25 -9 11 -15 12
-26 3 -10 -9 -20 -9 -41 2 -26 14 -26 14 31 17 53 3 57 5 57 27 0 36 -34 65
-75 65 -22 0 -43 -8 -55 -20z m78 -27 c2 -8 -6 -13 -22 -13 -25 0 -33 10 -19
24 10 10 36 3 41 -11z"/>
<path d="M10152 803 c-20 -17 -26 -37 -23 -75 2 -30 38 -58 76 -58 22 0 43 8
55 20 12 12 20 33 20 55 0 45 -29 75 -74 75 -19 0 -43 -8 -54 -17z m76 -25
c30 -30 -2 -93 -36 -71 -21 13 -27 50 -12 69 15 17 32 18 48 2z"/>
<path d="M10320 719 c0 -92 1 -99 20 -99 15 0 20 7 20 29 0 28 2 29 34 24 63
-10 101 67 61 125 -13 18 -25 21 -75 21 l-60 -1 0 -99z m110 26 c0 -29 -28
-47 -53 -34 -40 23 -6 90 35 68 10 -5 18 -21 18 -34z"/>
<path d="M10522 804 c-29 -20 -31 -85 -2 -114 21 -21 74 -27 99 -11 20 13 2
34 -23 27 -13 -3 -31 1 -42 9 -17 13 -14 14 40 15 l59 0 -7 33 c-3 17 -14 38
-23 45 -23 17 -74 15 -101 -4z m76 -31 c2 -9 -7 -13 -28 -13 -28 0 -31 2 -20
15 15 18 41 16 48 -2z"/>
<path d="M10680 744 c0 -67 2 -74 20 -74 17 0 20 7 20 43 0 47 7 60 33 70 35
13 19 34 -28 35 l-45 0 0 -74z"/>
<path d="M11140 761 c0 -76 13 -90 85 -89 l55 1 0 73 c0 67 -2 74 -20 74 -17
0 -20 -7 -20 -50 0 -38 -4 -52 -18 -59 -28 -15 -42 6 -42 61 0 41 -3 48 -20
48 -18 0 -20 -7 -20 -59z"/>
<path d="M11320 745 c0 -68 2 -75 20 -75 18 0 20 7 20 75 0 68 -2 75 -20 75
-18 0 -20 -7 -20 -75z"/>
<path d="M11670 745 c0 -68 2 -75 20 -75 18 0 20 7 20 75 0 68 -2 75 -20 75
-18 0 -20 -7 -20 -75z"/>
<path d="M11750 745 c0 -73 1 -75 25 -75 22 0 24 4 27 58 3 49 6 57 23 57 17
0 20 -8 23 -57 3 -54 5 -58 27 -58 23 0 25 4 25 48 0 26 -6 58 -13 72 -11 22
-19 25 -75 27 l-62 2 0 -74z"/>
<path d="M11946 801 c-26 -29 -21 -86 11 -111 26 -20 36 -21 77 -5 16 7 17 6
6 -15 -10 -19 -18 -22 -51 -17 -44 6 -61 -9 -34 -30 27 -19 68 -16 99 8 24 19
26 26 26 104 l0 83 -59 1 c-44 0 -62 -4 -75 -18z m94 -50 c0 -28 -28 -47 -48
-34 -24 15 -27 44 -7 59 22 17 55 1 55 -25z"/>
<path d="M12180 816 c0 -2 13 -36 30 -76 29 -71 31 -96 5 -86 -8 3 -19 -2 -26
-10 -10 -13 -10 -17 2 -25 39 -25 71 -3 100 71 51 131 51 130 25 130 -18 0
-25 -8 -35 -40 -6 -22 -15 -40 -20 -40 -4 0 -15 18 -24 40 -11 29 -21 40 -36
40 -12 0 -21 -2 -21 -4z"/>
<path d="M12371 794 c-12 -15 -21 -38 -21 -51 0 -34 42 -73 80 -73 38 0 80 39
80 73 0 42 -36 77 -80 77 -30 0 -43 -6 -59 -26z m89 -23 c5 -11 10 -24 10 -30
0 -12 -28 -41 -40 -41 -13 0 -40 30 -40 45 0 18 28 45 45 45 8 0 19 -9 25 -19z"/>
<path d="M12540 762 c0 -75 15 -90 88 -90 l52 0 0 74 c0 67 -2 74 -20 74 -17
0 -20 -7 -20 -50 0 -38 -4 -52 -18 -59 -28 -15 -42 6 -42 61 0 41 -3 48 -20
48 -18 0 -20 -7 -20 -58z"/>
<path d="M8871 707 c-14 -17 3 -41 23 -34 9 4 16 13 16 21 0 19 -26 28 -39 13z"/>
<path d="M10803 707 c-13 -20 -12 -67 2 -67 11 0 35 40 35 59 0 15 -29 21 -37
8z"/>
<path d="M8950 690 c0 -13 7 -20 20 -20 13 0 20 7 20 20 0 13 -7 20 -20 20
-13 0 -20 -7 -20 -20z"/>
<path d="M9030 690 c0 -13 7 -20 20 -20 13 0 20 7 20 20 0 13 -7 20 -20 20
-13 0 -20 -7 -20 -20z"/>
</g>
</svg>
