<?xml version="1.0" standalone="no"?>
<!DOCTYPE svg PUBLIC "-//W3C//DTD SVG 20010904//EN"
 "http://www.w3.org/TR/2001/REC-SVG-20010904/DTD/svg10.dtd">
<svg version="1.0" xmlns="http://www.w3.org/2000/svg"
 width="1305.000000pt" height="332.000000pt" viewBox="0 0 1305.000000 332.000000"
 preserveAspectRatio="xMidYMid meet">

<g transform="translate(0.000000,332.000000) scale(0.100000,-0.100000)"
fill="#000000" stroke="none">
<path d="M0 1660 l0 -1660 6525 0 6525 0 0 1660 0 1660 -6525 0 -6525 0 0
-1660z m3192 1065 c445 -77 800 -428 883 -871 20 -102 22 -291 5 -384 -27
-147 -99 -324 -178 -436 l-34 -47 -59 101 c-32 56 -59 105 -59 110 0 5 18 49
41 97 227 484 -48 1056 -576 1198 -116 31 -307 30 -425 -2 -307 -84 -539 -317
-622 -621 -31 -117 -31 -317 1 -435 66 -246 231 -446 456 -555 149 -73 203
-85 380 -85 127 0 162 4 230 23 98 29 198 78 289 144 37 27 69 48 70 46 13
-17 106 -182 106 -188 0 -5 -21 -24 -47 -43 -394 -288 -915 -282 -1308 13
-190 143 -328 349 -393 588 -24 88 -26 113 -26 277 1 196 9 246 73 410 58 151
201 341 334 443 152 117 332 195 512 222 87 13 259 11 347 -5z m6166 -955 c37
-23 39 -31 15 -53 -16 -13 -20 -14 -37 -1 -29 21 -82 18 -106 -6 -12 -12 -20
-33 -20 -55 0 -22 8 -43 20 -55 24 -24 76 -26 107 -5 18 13 22 12 38 -5 21
-23 15 -33 -29 -54 -48 -22 -97 -20 -137 7 -41 28 -59 60 -59 110 0 108 116
173 208 117z m540 4 c53 -37 48 -85 -14 -153 l-36 -41 46 0 c44 0 46 -1 46
-30 l0 -30 -90 0 c-84 0 -90 1 -90 21 0 11 27 52 61 90 61 72 66 85 36 103
-12 8 -21 6 -35 -7 -23 -21 -36 -21 -53 -1 -11 14 -10 20 14 40 33 28 82 31
115 8z m704 -4 c37 -28 55 -100 39 -159 -15 -59 -50 -91 -99 -91 -47 0 -80 23
-98 66 -28 66 -10 155 37 188 32 22 91 20 121 -4z m243 8 c27 -12 32 -30 12
-46 -8 -7 -18 -7 -27 -2 -22 14 -47 12 -64 -6 -25 -24 -19 -32 23 -30 54 1 91
-33 91 -85 0 -50 -26 -79 -77 -86 -80 -11 -120 46 -111 155 4 47 10 60 37 84
34 30 73 36 116 16z m239 -9 c27 -21 34 -56 16 -89 -7 -13 -6 -21 5 -30 22
-18 19 -76 -5 -100 -41 -41 -125 -38 -160 7 -24 30 -25 48 -5 86 11 22 12 33
3 52 -32 71 79 127 146 74z m-2004 -9 c28 -28 27 -96 -1 -126 l-21 -22 31 -46
32 -46 -36 0 c-31 0 -40 6 -67 45 -18 25 -40 45 -50 45 -15 0 -18 -8 -18 -45
0 -43 -1 -45 -30 -45 l-30 0 0 130 0 130 85 0 c72 0 88 -3 105 -20z m650 1 c0
-10 -25 -68 -55 -130 -51 -105 -56 -111 -85 -111 -16 0 -30 2 -30 4 0 1 20 46
45 99 25 53 45 99 45 102 0 3 -13 5 -30 5 -20 0 -30 -5 -30 -15 0 -9 -9 -15
-25 -15 -22 0 -25 4 -25 40 l0 40 95 0 c86 0 95 -2 95 -19z m420 -6 c0 -23 -3
-25 -50 -25 -43 0 -50 -3 -50 -20 0 -16 7 -20 34 -20 44 0 75 -26 82 -70 13
-83 -97 -132 -170 -75 -19 14 -19 15 -1 34 16 19 20 19 46 5 46 -23 85 5 60
45 -6 10 -21 12 -50 8 -51 -6 -61 8 -61 87 l0 56 80 0 c79 0 80 0 80 -25z
m228 3 c-3 -20 -10 -23 -55 -26 -45 -3 -53 -6 -53 -23 0 -15 7 -19 35 -19 80
0 112 -85 55 -142 -28 -27 -36 -30 -77 -25 -57 6 -80 26 -64 56 11 20 13 20
46 4 28 -14 37 -14 50 -3 9 7 15 23 13 34 -2 17 -10 21 -44 22 -59 1 -64 7
-64 80 l0 64 81 0 c78 0 80 -1 77 -22z m-884 -94 c8 -21 -11 -44 -36 -44 -21
0 -33 22 -24 45 7 20 52 19 60 -1z m-10 -90 c22 -21 3 -56 -27 -52 -25 3 -34
32 -17 53 16 19 25 19 44 -1z m-6454 -94 l0 -80 -55 0 -55 0 0 68 c0 40 5 73
12 80 7 7 31 12 55 12 l43 0 0 -80z m144 64 c3 -9 6 -45 6 -80 l0 -64 -55 0
-55 0 0 80 0 80 49 0 c35 0 51 -4 55 -16z m1160 -122 c2 -4 10 -83 17 -175 7
-92 14 -165 16 -163 2 2 13 77 24 166 11 90 22 167 25 171 3 5 29 9 59 9 43 0
55 -4 59 -17 2 -10 13 -88 22 -173 20 -171 27 -167 38 22 11 177 6 168 82 168
57 0 64 -2 64 -20 0 -39 -80 -504 -89 -513 -4 -4 -39 -7 -77 -5 l-69 3 -14
138 c-8 75 -17 137 -21 137 -4 0 -13 -62 -21 -137 l-14 -138 -77 -3 c-43 -2
-78 1 -78 5 0 4 -18 118 -40 253 -22 135 -40 253 -40 263 0 14 10 17 64 17 36
0 67 -4 70 -8z m615 -29 c6 -21 24 -83 40 -138 l29 -100 4 135 3 135 60 0 60
0 0 -265 0 -265 -71 -3 -71 -3 -39 138 -39 138 -5 -135 -5 -135 -60 0 -60 0
-3 255 c-1 140 0 260 3 267 3 9 27 13 74 13 l70 0 10 -37z m401 -168 l0 -204
73 -3 72 -3 0 -60 0 -60 -135 0 -135 0 -3 255 c-1 140 0 260 3 267 3 9 25 13
65 13 l60 0 0 -205z m517 -50 c29 -137 52 -258 53 -268 0 -16 -8 -18 -67 -15
l-68 3 -9 48 -8 48 -47 -3 c-41 -3 -46 -6 -49 -28 -8 -71 -7 -70 -77 -70 -48
0 -65 4 -65 14 0 15 98 494 105 514 3 9 28 12 92 10 l88 -3 52 -250z m289 105
l43 -145 0 148 1 148 63 -3 62 -3 3 -245 c1 -135 0 -255 -3 -268 -5 -22 -10
-23 -78 -20 l-72 3 -37 132 c-20 73 -38 137 -40 143 -1 6 -3 -54 -3 -132 l0
-143 -62 -3 -63 -3 0 271 0 271 72 -3 72 -3 42 -145z m505 124 c19 -11 44 -36
57 -54 22 -33 23 -41 20 -197 -3 -145 -5 -165 -24 -190 -36 -50 -87 -67 -206
-71 l-108 -4 0 264 c0 146 3 268 8 272 4 5 55 6 113 4 82 -3 114 -9 140 -24z
m269 -244 l0 -270 -60 0 -60 0 0 270 0 270 60 0 60 0 0 -270z m265 126 l40
-139 3 142 3 142 62 -3 62 -3 0 -265 0 -265 -74 0 -74 0 -38 134 c-21 74 -40
138 -41 143 -2 4 -3 -56 -3 -134 l0 -143 -62 -3 -63 -3 0 271 0 271 72 -3 72
-3 41 -139z m506 122 c42 -23 79 -85 79 -131 0 -27 -1 -27 -65 -27 -57 0 -65
2 -65 19 0 26 -24 43 -57 39 l-28 -3 -3 -139 c-3 -143 3 -166 39 -166 45 0 70
76 27 82 -21 3 -23 9 -23 58 l0 55 85 0 85 0 3 -75 c4 -97 -3 -133 -35 -170
-37 -45 -80 -63 -144 -63 -67 0 -113 23 -146 73 -22 31 -23 43 -23 199 0 160
1 168 24 202 33 48 78 68 150 69 42 0 69 -6 97 -22z m407 -85 l3 -103 34 0 35
0 0 89 c0 121 0 121 71 121 l59 0 0 -270 0 -271 -62 3 -63 3 -3 103 -3 102
-34 0 -34 0 -3 -102 -3 -103 -62 -3 -63 -3 0 264 c0 145 3 267 7 271 4 4 32 6
63 4 l55 -3 3 -102z m539 90 c19 -9 46 -33 60 -54 24 -36 24 -40 21 -206 -3
-155 -5 -170 -25 -199 -66 -92 -238 -88 -301 6 -22 34 -23 41 -20 205 3 157 5
172 25 201 12 17 37 38 55 47 43 22 140 22 185 0z m327 0 c3 -10 14 -67 26
-127 11 -61 22 -111 24 -113 2 -2 14 54 27 124 l24 128 85 0 85 0 0 -265 0
-265 -62 -3 -63 -3 -1 158 c0 87 -2 154 -4 148 -2 -5 -13 -54 -25 -107 l-22
-98 -47 0 -48 0 -26 118 -25 117 -1 -167 -1 -168 -60 0 -60 0 0 270 0 270 84
0 c72 0 85 -3 90 -17z m631 -48 l0 -60 -77 -3 -78 -3 0 -39 0 -40 65 0 65 0 0
-60 0 -60 -65 0 -65 0 0 -40 0 -39 78 -3 77 -3 0 -60 0 -60 -140 0 -140 0 -3
255 c-1 140 0 260 3 268 3 10 37 12 142 10 l138 -3 0 -60z m305 47 c40 -20 68
-64 72 -112 l3 -35 -61 -3 c-59 -3 -62 -2 -68 23 -5 19 -13 25 -35 25 -16 0
-31 -6 -34 -12 -9 -25 16 -50 77 -77 64 -29 111 -74 122 -117 11 -42 -2 -124
-23 -152 -32 -43 -78 -65 -138 -65 -97 0 -162 54 -168 139 l-2 39 63 3 c56 3
62 1 62 -16 0 -41 71 -58 78 -19 5 27 -15 46 -85 79 -69 33 -98 62 -113 118
-19 71 14 155 73 184 43 21 133 20 177 -2z m400 -187 l0 -204 73 -3 72 -3 0
-60 0 -60 -135 0 -135 0 -3 255 c-1 140 0 260 3 267 3 9 25 13 65 13 l60 0 0
-205z m445 140 l0 -60 -47 -3 -48 -3 -2 -202 -3 -202 -62 -3 -63 -3 0 206 0
205 -50 0 -50 0 0 65 0 65 163 -2 162 -3 0 -60z m310 43 c76 -40 95 -92 95
-253 -1 -211 -41 -255 -237 -263 l-113 -5 0 265 c0 146 3 268 8 272 13 14 215
1 247 -16z m-8035 -98 l0 -40 -50 0 -50 0 0 40 0 40 50 0 50 0 0 -40z m150 0
l0 -40 -50 0 -50 0 0 40 0 40 50 0 50 0 0 -40z m6718 -598 c3 -88 2 -92 -18
-92 -20 0 -21 5 -19 88 2 94 5 105 22 99 8 -2 13 -37 15 -95z m307 88 c3 -5 3
-15 -1 -21 -4 -7 -6 -45 -5 -85 2 -63 0 -74 -14 -74 -14 0 -16 11 -14 74 1 40
-1 78 -5 85 -9 14 1 31 19 31 8 0 17 -4 20 -10z m-1917 -87 l-3 -88 -48 -2
c-36 -2 -53 3 -67 17 -45 45 -8 128 51 115 26 -6 29 -4 29 19 0 19 5 26 20 26
20 0 21 -5 18 -87z m512 -3 c0 -83 -1 -90 -20 -90 -19 0 -20 7 -20 90 0 83 1
90 20 90 19 0 20 -7 20 -90z m780 65 c0 -22 3 -25 24 -19 19 4 32 -1 50 -20
31 -30 33 -55 6 -88 -16 -21 -28 -26 -70 -26 l-50 0 0 89 c0 82 2 89 20 89 15
0 20 -7 20 -25z m390 -65 c0 -83 -1 -90 -20 -90 -19 0 -20 7 -20 90 0 83 1 90
20 90 19 0 20 -7 20 -90z m160 1 l0 -88 -42 -1 c-63 0 -88 19 -88 68 0 48 32
75 74 64 23 -5 26 -3 26 20 0 16 6 26 15 26 12 0 15 -17 15 -89z m-2092 33
c18 -12 22 -25 22 -69 l0 -54 -32 1 c-57 1 -77 8 -83 27 -9 30 5 50 41 57 19
3 31 10 29 15 -3 4 -19 6 -35 2 -33 -6 -41 10 -12 26 24 15 44 13 70 -5z m380
0 c12 -8 22 -26 22 -40 0 -22 -4 -24 -45 -24 -25 0 -45 -4 -45 -9 0 -13 34
-23 53 -16 8 4 18 1 22 -5 9 -15 5 -19 -33 -26 -25 -5 -36 -1 -56 19 -33 33
-33 61 -1 92 28 29 51 31 83 9z m87 -26 l17 -43 19 43 c10 23 25 42 34 42 20
0 19 -6 -9 -76 -33 -82 -56 -84 -84 -9 -26 66 -27 85 -8 85 8 0 22 -19 31 -42z
m210 17 c39 -38 33 -55 -21 -55 -32 0 -44 -4 -41 -12 2 -7 15 -13 30 -13 32 0
46 -13 27 -25 -45 -29 -117 18 -106 68 8 32 40 62 68 62 10 0 30 -11 43 -25z
m234 0 c23 -22 18 -75 -8 -97 -28 -22 -59 -23 -89 -2 -37 26 -26 101 18 117
21 8 62 -2 79 -18z m162 -4 c25 -30 24 -52 -2 -86 -18 -22 -28 -26 -50 -21
-26 5 -29 3 -29 -19 0 -18 -5 -25 -20 -25 -18 0 -20 7 -20 83 0 46 2 86 5 89
3 3 26 4 51 3 36 -1 51 -7 65 -24z m157 2 c6 -9 12 -25 12 -35 0 -15 -8 -18
-46 -18 -32 0 -44 -4 -41 -12 2 -7 17 -13 33 -13 38 0 45 -17 11 -29 -55 -20
-98 28 -83 89 11 45 84 56 114 18z m72 17 c0 -7 6 -7 20 0 17 9 20 8 20 -7 0
-10 -9 -24 -20 -31 -15 -9 -20 -23 -20 -52 0 -29 -4 -40 -15 -40 -12 0 -15 14
-15 70 0 56 3 70 15 70 8 0 15 -5 15 -10z m400 -34 c0 -81 45 -82 52 -1 2 27
8 40 18 40 12 0 16 -15 18 -66 l3 -67 -51 0 c-61 0 -80 21 -80 84 0 43 5 54
27 54 9 0 13 -14 13 -44z m603 25 c12 -9 17 -29 17 -68 0 -46 -3 -54 -17 -51
-14 2 -19 16 -23 53 -4 36 -9 50 -20 50 -11 0 -16 -14 -20 -50 -4 -37 -9 -51
-22 -53 -16 -3 -18 5 -18 66 l0 69 43 -1 c24 0 51 -7 60 -15z m177 -58 c0 -60
-4 -77 -20 -93 -30 -30 -100 -25 -100 7 0 11 7 14 27 10 28 -5 63 7 63 21 0 5
-17 6 -37 4 -42 -5 -63 15 -63 60 0 42 29 65 83 65 l47 0 0 -74z m139 35 l17
-42 17 42 c9 23 24 42 32 42 21 0 19 -15 -16 -102 -31 -77 -49 -95 -83 -82
-22 8 -20 25 4 31 11 3 20 11 20 19 0 7 -9 36 -20 64 -24 61 -25 70 -5 70 9 0
24 -19 34 -42z m219 14 c22 -29 11 -84 -20 -101 -55 -31 -121 25 -98 83 17 46
88 57 118 18z m82 -27 c4 -36 9 -50 20 -50 11 0 16 14 20 50 4 37 9 51 23 53
15 3 17 -5 17 -66 l0 -69 -45 -1 c-61 0 -75 16 -75 84 0 47 3 55 18 52 13 -2
18 -16 22 -53z m-3182 -62 c5 -17 -26 -29 -40 -15 -6 6 -7 15 -3 22 9 14 37 9
43 -7z m70 0 c5 -17 -26 -29 -40 -15 -6 6 -7 15 -3 22 9 14 37 9 43 -7z m70 0
c5 -17 -26 -29 -40 -15 -6 6 -7 15 -3 22 9 14 37 9 43 -7z m1527 7 c8 -13 -13
-50 -28 -50 -10 0 -16 42 -8 58 3 6 31 1 36 -8z"/>
<path d="M10506 1725 c-22 -22 -22 -117 0 -139 37 -37 74 -11 81 57 7 74 -40
122 -81 82z"/>
<path d="M10778 1643 c-22 -5 -33 -40 -18 -58 27 -32 78 -5 65 34 -7 21 -22
29 -47 24z"/>
<path d="M10994 1725 c-6 -15 11 -45 25 -45 19 0 42 27 35 43 -8 21 -52 23
-60 2z"/>
<path d="M10994 1626 c-26 -20 -7 -51 32 -51 32 0 44 26 24 50 -16 19 -31 19
-56 1z"/>
<path d="M8950 1695 l0 -36 43 3 c39 3 42 5 42 33 0 28 -3 30 -42 33 l-43 3 0
-36z"/>
<path d="M5718 1265 c-4 -16 -10 -58 -14 -92 l-7 -63 27 0 c29 0 29 -4 12 105
-10 65 -13 74 -18 50z"/>
<path d="M6530 1159 l0 -140 38 3 37 3 3 124 c3 135 -2 151 -49 151 l-29 0 0
-141z"/>
<path d="M8520 1300 c-23 -14 -28 -232 -6 -265 16 -25 39 -31 70 -19 13 5 16
27 16 138 0 89 -4 136 -12 144 -14 14 -47 15 -68 2z"/>
<path d="M10940 1160 l0 -140 35 0 c47 0 55 19 55 140 0 121 -8 140 -55 140
l-35 0 0 -140z"/>
<path d="M8197 714 c-12 -12 -8 -41 8 -54 20 -17 47 5 43 34 -3 21 -37 34 -51
20z"/>
<path d="M9587 714 c-12 -12 -8 -41 8 -54 20 -17 47 5 43 34 -3 21 -37 34 -51
20z"/>
<path d="M10053 722 c-11 -7 -16 -26 -14 -48 2 -19 29 -24 45 -9 25 26 -2 75
-31 57z"/>
<path d="M7980 664 c0 -9 7 -14 17 -12 25 5 28 28 4 28 -12 0 -21 -6 -21 -16z"/>
<path d="M8360 715 c-11 -13 -9 -15 15 -15 16 0 25 5 23 12 -7 19 -24 20 -38
3z"/>
<path d="M8654 715 c-18 -14 -17 -14 15 -15 29 0 32 2 21 15 -15 18 -12 18
-36 0z"/>
<path d="M8866 705 c-13 -35 26 -67 52 -41 21 20 6 56 -23 56 -12 0 -25 -7
-29 -15z"/>
<path d="M9037 714 c-12 -12 -8 -41 8 -54 20 -17 47 5 43 34 -3 21 -37 34 -51
20z"/>
<path d="M9203 723 c-22 -8 -14 -23 12 -23 14 0 25 4 25 9 0 11 -21 19 -37 14z"/>
<path d="M10427 708 c-7 -20 12 -48 32 -48 19 0 31 25 24 48 -3 6 -15 12 -28
12 -13 0 -25 -6 -28 -12z"/>
<path d="M10795 699 c-13 -41 44 -63 59 -23 9 23 -5 44 -29 44 -15 0 -26 -8
-30 -21z"/>
</g>
</svg>
