<?xml version="1.0" standalone="no"?>
<!DOCTYPE svg PUBLIC "-//W3C//DTD SVG 20010904//EN"
 "http://www.w3.org/TR/2001/REC-SVG-20010904/DTD/svg10.dtd">
<svg version="1.0" xmlns="http://www.w3.org/2000/svg"
 width="608.000000pt" height="283.000000pt" viewBox="0 0 608.000000 283.000000"
 preserveAspectRatio="xMidYMid meet">

<g transform="translate(0.000000,283.000000) scale(0.100000,-0.100000)"
fill="#000000" stroke="none">
<path d="M0 1415 l0 -1415 3040 0 3040 0 0 1415 0 1415 -3040 0 -3040 0 0
-1415z m1471 1137 c194 -52 345 -134 480 -260 184 -173 290 -364 335 -599 19
-103 21 -290 4 -383 -27 -148 -99 -324 -178 -436 l-34 -47 -37 64 c-20 35 -48
83 -61 107 l-24 42 31 63 c65 129 93 250 93 392 -2 396 -265 733 -655 838
-116 31 -307 30 -425 -2 -307 -84 -539 -317 -622 -621 -31 -117 -31 -317 1
-435 66 -246 231 -446 456 -555 149 -73 203 -85 380 -85 127 0 162 4 230 23
98 29 198 78 289 144 37 27 69 48 70 46 13 -17 106 -182 106 -188 0 -5 -21
-24 -47 -43 -394 -288 -915 -282 -1308 13 -190 143 -328 349 -393 588 -24 88
-26 113 -26 277 0 151 4 192 21 255 36 129 80 231 141 326 174 269 442 444
757 495 89 14 332 3 416 -19z m1033 -160 c3 -4 10 -83 17 -175 7 -91 14 -165
16 -163 2 2 13 77 24 166 11 90 22 167 25 171 3 5 29 9 59 9 43 0 55 -4 59
-17 2 -10 13 -88 22 -173 20 -171 27 -167 38 22 11 177 6 168 82 168 57 0 64
-2 64 -20 0 -39 -80 -504 -89 -513 -4 -4 -39 -7 -77 -5 l-69 3 -14 138 c-8 75
-17 137 -21 137 -3 0 -12 -62 -20 -137 l-15 -138 -77 -3 c-43 -2 -78 0 -78 3
0 3 -18 118 -40 255 -22 137 -40 257 -40 265 0 12 14 15 64 15 36 0 67 -4 70
-8z m615 -29 c6 -21 24 -83 40 -138 l29 -100 4 135 3 135 60 0 60 0 0 -265 0
-265 -71 -3 -71 -3 -39 138 -39 138 -5 -135 -5 -135 -60 0 -60 0 -3 255 c-1
140 0 260 3 267 3 9 27 13 74 13 l70 0 10 -37z m401 -168 l0 -204 73 -3 72 -3
0 -60 0 -60 -135 0 -135 0 -3 255 c-1 140 0 260 3 267 3 9 25 13 65 13 l60 0
0 -205z m517 -45 c28 -135 52 -255 52 -268 1 -22 -2 -23 -66 -20 l-68 3 -9 48
-8 48 -47 -3 c-41 -3 -46 -6 -49 -28 -8 -71 -7 -70 -77 -70 -48 0 -65 4 -65
14 0 15 98 494 105 514 3 9 28 12 92 10 l88 -3 52 -245z m289 100 l43 -145 0
148 1 148 63 -3 62 -3 0 -265 0 -265 -75 0 -74 0 -37 131 c-20 72 -38 136 -40
142 -2 7 -4 -52 -4 -130 l0 -143 -62 -3 -63 -3 0 271 0 271 72 -3 72 -3 42
-145z m505 124 c19 -11 44 -35 56 -54 21 -31 23 -44 23 -190 0 -146 -2 -159
-23 -190 -39 -59 -76 -73 -204 -78 l-113 -5 0 265 c0 146 3 268 8 272 4 5 55
6 113 4 82 -3 114 -9 140 -24z m269 -244 l0 -270 -60 0 -60 0 0 270 0 270 60
0 60 0 0 -270z m265 126 l40 -140 3 143 3 142 62 -3 62 -3 0 -265 0 -265 -74
0 -74 0 -38 130 -37 130 -4 -130 -3 -130 -62 -3 -63 -3 0 271 0 271 73 -3 72
-3 40 -139z m506 122 c42 -23 79 -85 79 -131 0 -27 -1 -27 -65 -27 -57 0 -65
2 -65 19 0 26 -24 43 -57 39 l-28 -3 -3 -141 c-2 -119 0 -143 13 -154 27 -23
69 -1 73 37 3 26 -1 32 -20 35 -20 3 -23 10 -26 49 -4 62 9 71 100 67 l73 -3
3 -75 c4 -97 -3 -133 -35 -170 -38 -45 -80 -63 -145 -63 -68 1 -112 23 -146
73 -22 34 -23 41 -20 205 3 157 5 172 25 201 31 43 77 64 147 64 42 0 69 -6
97 -22z m-3243 -825 l3 -103 34 0 35 0 0 89 c0 121 0 121 71 121 l59 0 0 -270
0 -271 -62 3 -63 3 -3 103 -3 102 -34 0 -34 0 -3 -102 -3 -103 -62 -3 -63 -3
0 264 c0 145 3 267 7 271 4 4 32 6 63 4 l55 -3 3 -102z m542 88 c19 -10 45
-33 58 -52 22 -33 23 -40 20 -204 -3 -157 -5 -172 -25 -201 -66 -92 -238 -88
-301 6 -22 34 -23 41 -20 205 3 157 5 172 25 201 12 17 37 38 55 47 46 23 144
22 188 -2z m324 2 c3 -10 15 -70 27 -133 13 -63 24 -110 26 -104 2 6 13 64 26
130 l22 119 85 0 85 0 0 -265 0 -265 -62 -3 -63 -3 -1 158 c0 87 -2 154 -4
148 -2 -5 -13 -54 -25 -107 l-22 -98 -48 0 -48 0 -18 93 -19 92 -2 -120 c-4
-171 -1 -165 -73 -165 l-60 0 0 270 0 270 84 0 c72 0 85 -3 90 -17z m631 -48
l0 -60 -77 -3 -78 -3 0 -39 0 -40 65 0 65 0 0 -60 0 -60 -65 0 -65 0 0 -40 0
-39 78 -3 77 -3 0 -60 0 -60 -140 0 -140 0 -3 255 c-1 140 0 260 3 268 3 10
37 12 142 10 l138 -3 0 -60z m305 47 c40 -20 68 -64 72 -112 l3 -35 -62 -3
c-58 -3 -62 -1 -65 20 -2 17 -11 24 -32 26 -16 2 -32 -2 -37 -9 -14 -23 11
-49 74 -77 65 -30 112 -75 123 -118 11 -42 -2 -124 -23 -152 -32 -43 -79 -65
-137 -65 -97 0 -164 55 -169 139 l-2 39 63 3 c56 3 62 1 62 -16 0 -41 71 -58
78 -19 5 27 -15 46 -85 79 -69 33 -98 62 -113 118 -19 71 14 155 73 184 43 21
133 20 177 -2z m400 -187 l0 -204 73 -3 72 -3 0 -60 0 -60 -135 0 -135 0 -3
255 c-1 140 0 260 3 267 3 9 25 13 65 13 l60 0 0 -205z m445 140 l0 -60 -47
-3 -48 -3 -2 -202 -3 -202 -62 -3 -63 -3 0 206 0 205 -50 0 -50 0 0 65 0 65
163 -2 162 -3 0 -60z m310 43 c76 -40 95 -92 95 -253 -1 -150 -22 -204 -95
-243 -22 -12 -60 -16 -140 -16 l-110 -1 -3 255 c-1 140 0 261 3 269 8 20 208
11 250 -11z m-4345 -318 l0 -80 -55 0 -55 0 0 68 c0 40 5 73 12 80 7 7 31 12
55 12 l43 0 0 -80z m144 64 c3 -9 6 -45 6 -80 l0 -64 -55 0 -55 0 0 80 0 80
49 0 c35 0 51 -4 55 -16z m-144 -234 l0 -40 -50 0 -50 0 0 40 0 40 50 0 50 0
0 -40z m150 0 l0 -40 -50 0 -50 0 0 40 0 40 50 0 50 0 0 -40z m1708 -217 l-3
-88 -48 -2 c-36 -2 -53 3 -67 17 -45 45 -8 128 51 115 26 -6 29 -4 29 19 0 19
5 26 20 26 20 0 21 -5 18 -87z m512 -3 c0 -83 -1 -90 -20 -90 -19 0 -20 7 -20
90 0 83 1 90 20 90 19 0 20 -7 20 -90z m780 65 c0 -22 3 -25 24 -19 19 4 32
-1 50 -20 31 -30 33 -55 6 -88 -16 -21 -28 -26 -70 -26 l-50 0 0 89 c0 82 2
89 20 89 15 0 20 -7 20 -25z m319 -65 c2 -84 0 -90 -19 -90 -18 0 -20 6 -20
63 0 36 5 68 12 75 9 9 9 12 0 12 -7 0 -12 7 -12 15 0 8 8 15 18 15 17 0 19
-10 21 -90z m71 0 c0 -83 -1 -90 -20 -90 -19 0 -20 7 -20 90 0 83 1 90 20 90
19 0 20 -7 20 -90z m160 2 l0 -89 -46 -1 c-32 0 -51 5 -65 19 -44 44 -7 127
52 114 26 -6 29 -4 29 19 0 16 6 26 15 26 12 0 15 -16 15 -88z m80 80 c0 -5
-3 -12 -7 -15 -3 -4 -5 -41 -4 -82 2 -64 0 -75 -14 -75 -14 0 -16 11 -14 73 2
39 0 77 -4 83 -3 6 -4 14 0 18 9 9 43 7 43 -2z m-2172 -48 c18 -12 22 -25 22
-69 l0 -54 -32 1 c-57 1 -77 8 -83 27 -9 30 5 50 41 57 19 3 31 10 29 15 -3 4
-19 6 -35 2 -33 -6 -41 10 -12 26 24 15 44 13 70 -5z m380 -1 c11 -10 23 -28
27 -40 6 -21 3 -23 -39 -23 -25 0 -47 -4 -51 -9 -7 -12 27 -23 48 -16 20 8 34
-15 16 -26 -39 -24 -109 15 -109 61 0 26 43 70 68 70 11 0 29 -8 40 -17z m87
-25 l17 -43 19 43 c10 23 25 42 34 42 20 0 19 -5 -8 -75 -33 -85 -57 -86 -85
-7 -26 69 -27 82 -8 82 8 0 22 -19 31 -42z m210 17 c39 -38 33 -55 -21 -55
-32 0 -44 -4 -41 -12 2 -7 15 -13 30 -13 32 0 46 -13 27 -25 -45 -29 -117 18
-106 68 8 32 40 62 68 62 10 0 30 -11 43 -25z m234 0 c23 -22 18 -75 -8 -97
-47 -37 -111 -11 -111 45 0 37 7 49 35 65 23 14 63 7 84 -13z m162 -4 c25 -30
24 -52 -2 -86 -18 -22 -28 -26 -50 -21 -26 5 -29 3 -29 -19 0 -18 -5 -25 -20
-25 -18 0 -20 7 -20 83 0 46 2 86 5 89 3 3 26 4 51 3 36 -1 51 -7 65 -24z
m157 2 c6 -9 12 -25 12 -35 0 -15 -8 -18 -46 -18 -32 0 -44 -4 -41 -12 2 -7
17 -13 33 -13 38 0 45 -17 11 -29 -54 -19 -98 27 -83 87 11 45 85 57 114 20z
m72 17 c0 -7 6 -7 20 0 16 9 20 8 20 -5 0 -8 -9 -24 -20 -35 -12 -12 -20 -33
-20 -55 0 -24 -5 -35 -15 -35 -12 0 -15 14 -15 63 0 35 3 67 7 70 10 10 23 8
23 -3z m400 -34 c0 -81 45 -82 52 -1 2 27 8 40 18 40 12 0 16 -15 18 -66 l3
-67 -51 0 c-40 0 -54 5 -65 21 -18 26 -20 103 -2 110 24 10 27 6 27 -37z m603
25 c12 -9 17 -29 17 -68 0 -46 -3 -54 -17 -51 -14 2 -19 16 -23 53 -4 36 -9
50 -20 50 -11 0 -16 -14 -20 -50 -4 -37 -9 -51 -22 -53 -16 -3 -18 5 -18 61 0
35 2 66 5 68 10 11 83 3 98 -10z m177 -62 c0 -69 -2 -80 -22 -93 -36 -26 -98
-18 -98 11 0 11 7 14 27 10 28 -5 63 7 63 21 0 5 -15 6 -33 4 -41 -5 -67 18
-67 59 0 43 28 66 83 66 l47 0 0 -78z m139 39 l18 -43 13 37 c13 35 36 55 48
43 6 -6 -8 -51 -40 -127 -20 -48 -42 -64 -72 -52 -22 8 -20 25 4 31 25 7 25
19 0 83 -11 28 -18 56 -15 61 12 19 26 8 44 -33z m219 14 c22 -29 11 -84 -20
-101 -55 -31 -121 25 -98 83 17 46 88 57 118 18z m80 -23 c6 -79 40 -77 51 2
3 24 12 44 19 47 9 3 12 -15 12 -66 l0 -69 -45 -1 c-28 0 -51 6 -60 15 -15 15
-21 103 -8 117 15 15 28 -3 31 -45z m-3180 -66 c5 -17 -26 -29 -40 -15 -6 6
-7 15 -3 22 9 14 37 9 43 -7z m70 0 c5 -17 -26 -29 -40 -15 -6 6 -7 15 -3 22
9 14 37 9 43 -7z m70 0 c5 -17 -26 -29 -40 -15 -6 6 -7 15 -3 22 9 14 37 9 43
-7z m1527 7 c8 -13 -13 -50 -28 -50 -10 0 -16 42 -8 58 3 6 31 1 36 -8z
m-1177 -200 c37 -23 39 -31 15 -53 -16 -13 -20 -14 -37 -1 -29 21 -82 18 -106
-6 -12 -12 -20 -33 -20 -55 0 -22 8 -43 20 -55 24 -24 76 -26 107 -5 18 13 22
12 38 -5 21 -23 15 -33 -29 -54 -48 -22 -97 -20 -137 7 -41 28 -59 60 -59 110
0 108 116 173 208 117z m545 0 c49 -39 44 -80 -19 -149 l-36 -41 46 0 c44 0
46 -1 46 -30 l0 -30 -90 0 c-85 0 -90 1 -90 21 0 12 21 44 46 73 74 81 80 94
60 114 -13 14 -20 14 -34 4 -32 -23 -44 -25 -60 -8 -16 16 -15 19 11 42 35 30
85 32 120 4z m700 -1 c56 -43 60 -168 7 -221 -52 -52 -137 -33 -166 38 -28 66
-10 155 37 188 33 22 91 20 122 -5z m242 9 c27 -12 32 -30 12 -46 -8 -7 -18
-7 -27 -2 -22 14 -47 12 -64 -6 -24 -23 -20 -37 8 -30 29 7 74 -8 92 -32 19
-25 17 -86 -4 -112 -23 -29 -93 -38 -126 -17 -32 22 -49 77 -44 145 4 47 10
60 37 84 34 30 73 36 116 16z m239 -9 c27 -21 34 -56 16 -89 -7 -13 -6 -21 5
-30 22 -18 19 -76 -5 -100 -41 -41 -125 -38 -160 7 -24 30 -25 48 -5 86 11 22
12 33 3 52 -32 71 79 127 146 74z m-2004 -9 c28 -28 27 -96 -1 -126 l-21 -22
31 -46 32 -46 -36 0 c-31 0 -40 6 -67 45 -18 25 -40 45 -50 45 -15 0 -18 -8
-18 -45 0 -43 -1 -45 -30 -45 l-30 0 0 130 0 130 85 0 c72 0 88 -3 105 -20z
m650 0 c0 -11 -25 -70 -55 -130 -52 -103 -57 -110 -85 -110 -17 0 -30 2 -30 4
0 1 20 46 45 99 25 53 45 99 45 102 0 3 -13 5 -30 5 -20 0 -30 -5 -30 -15 0
-9 -9 -15 -25 -15 -22 0 -25 4 -25 40 l0 40 95 0 c89 0 95 -1 95 -20z m420 -5
c0 -23 -3 -25 -50 -25 -43 0 -50 -3 -50 -20 0 -16 7 -20 34 -20 44 0 75 -26
82 -71 8 -50 -25 -88 -83 -96 -65 -9 -115 31 -82 64 9 9 19 8 41 -3 45 -23 84
6 59 45 -6 10 -21 12 -50 8 -51 -6 -61 8 -61 87 l0 56 80 0 c79 0 80 0 80 -25z
m228 3 c-3 -20 -10 -23 -55 -26 -45 -3 -53 -6 -53 -23 0 -15 7 -19 35 -19 81
0 115 -93 53 -145 -27 -23 -39 -26 -76 -22 -56 6 -78 26 -63 56 11 20 13 20
46 4 28 -14 37 -14 50 -3 9 7 15 23 13 34 -2 17 -10 21 -44 22 -59 1 -64 7
-64 80 l0 64 81 0 c78 0 80 -1 77 -22z m-884 -94 c8 -21 -11 -44 -36 -44 -21
0 -33 22 -24 45 7 20 52 19 60 -1z m-9 -90 c18 -18 16 -33 -7 -47 -35 -22 -66
21 -36 51 16 16 23 15 43 -4z"/>
<path d="M3888 2235 c-4 -16 -10 -58 -14 -92 l-7 -63 27 0 c29 0 29 -4 12 105
-10 65 -13 74 -18 50z"/>
<path d="M4700 2129 l0 -140 38 3 37 3 3 129 c3 140 1 146 -50 146 l-28 0 0
-141z"/>
<path d="M3040 1530 c-23 -15 -28 -232 -5 -266 22 -35 76 -31 86 6 12 44 10
213 -4 240 -13 27 -52 37 -77 20z"/>
<path d="M3442 1430 c0 -14 2 -19 5 -12 2 6 2 18 0 25 -3 6 -5 1 -5 -13z"/>
<path d="M5460 1390 l0 -140 35 0 c47 0 55 19 55 140 0 121 -8 140 -55 140
l-35 0 0 -140z"/>
<path d="M3007 934 c-12 -12 -8 -41 8 -54 20 -17 47 5 43 34 -3 21 -37 34 -51
20z"/>
<path d="M4397 934 c-12 -12 -8 -41 8 -54 20 -17 47 5 43 34 -3 21 -37 34 -51
20z"/>
<path d="M4850 910 c0 -16 2 -30 4 -30 2 0 11 -3 19 -6 19 -7 40 28 31 50 -3
9 -17 16 -30 16 -20 0 -24 -5 -24 -30z"/>
<path d="M2790 884 c0 -9 7 -14 17 -12 25 5 28 28 4 28 -12 0 -21 -6 -21 -16z"/>
<path d="M3170 935 c-11 -13 -9 -15 15 -15 16 0 25 5 23 12 -7 19 -24 20 -38
3z"/>
<path d="M3464 935 c-18 -14 -17 -14 15 -15 29 0 32 2 21 15 -15 18 -12 18
-36 0z"/>
<path d="M3676 925 c-13 -35 26 -67 52 -41 21 20 6 56 -23 56 -12 0 -25 -7
-29 -15z"/>
<path d="M3847 934 c-12 -12 -8 -41 8 -54 20 -17 47 5 43 34 -3 21 -37 34 -51
20z"/>
<path d="M4013 943 c-22 -8 -14 -23 12 -23 14 0 25 4 25 9 0 11 -21 19 -37 14z"/>
<path d="M5242 913 c3 -32 41 -45 51 -19 10 26 -3 46 -30 46 -21 0 -24 -4 -21
-27z"/>
<path d="M5606 924 c-7 -17 9 -54 24 -54 16 0 41 33 36 47 -3 8 -6 17 -6 19 0
12 -49 2 -54 -12z"/>
<path d="M4226 625 c-22 -22 -22 -117 0 -139 37 -37 74 -11 81 57 7 74 -40
122 -81 82z"/>
<path d="M4498 543 c-22 -5 -33 -40 -18 -58 27 -32 78 -5 65 34 -7 21 -22 29
-47 24z"/>
<path d="M4714 625 c-6 -15 11 -45 25 -45 19 0 42 27 35 43 -8 21 -52 23 -60
2z"/>
<path d="M4714 526 c-26 -20 -7 -51 32 -51 32 0 44 26 24 50 -16 19 -31 19
-56 1z"/>
<path d="M2670 595 l0 -36 43 3 c39 3 42 5 42 33 0 28 -3 30 -42 33 l-43 3 0
-36z"/>
</g>
</svg>
